<svg id="Capa_1" data-name="Capa 1" xmlns="http://www.w3.org/2000/svg" viewBox="0 0 52.4 22.48"><defs><style>.cls-1{fill:#fff;}</style></defs><title>Mesa de trabajo 3</title><path class="cls-1" d="M10.46,8.64A1.42,1.42,0,1,1,9,7.22a1.42,1.42,0,0,1,1.42,1.42"/><polygon class="cls-1" points="47.74 17.13 47.74 17.86 13.24 17.86 12.54 17.13 47.74 17.13"/><path class="cls-1" d="M9,14c0,.83,1,1.59,1.92,2.51l1.3,1.31H9.77l-.7-.7c-.91-.88-1.91-1.87-1.91-3.11,0-3.19,4.53-2.62,4.53-5.41A2.67,2.67,0,0,0,9,6.15H7.14V4.63H9a4.08,4.08,0,0,1,4.4,4C13.44,12.26,9,12,9,14"/><rect class="cls-1" x="4.66" y="4.62" width="1.76" height="11.04"/><path class="cls-1" d="M18,14a2.51,2.51,0,1,0-2.44-2.5A2.47,2.47,0,0,0,18,14m0-6.77a4.26,4.26,0,1,1-4.2,4.26A4.21,4.21,0,0,1,18,7.26"/><path class="cls-1" d="M25.24,14.05h1.49c1.32,0,2-1.17,2-2.53S28.05,9,26.73,9H25.24Zm-1.76,1.6V7.36h3.25c2.38,0,3.74,1.81,3.74,4.17s-1.36,4.13-3.74,4.13Z"/><path class="cls-1" d="M39,14a4.12,4.12,0,0,1-3.49,1.82,4.17,4.17,0,0,1-4.17-4.25A4.2,4.2,0,0,1,38.92,9l-1.43,1a2.43,2.43,0,0,0-2-1.08,2.46,2.46,0,0,0-2.4,2.6,2.46,2.46,0,0,0,2.4,2.59A2.5,2.5,0,0,0,37.54,13Z"/><path class="cls-1" d="M43.53,14a2.51,2.51,0,1,0-2.44-2.5A2.47,2.47,0,0,0,43.53,14m0-6.77a4.26,4.26,0,1,1-4.2,4.26,4.21,4.21,0,0,1,4.2-4.26"/></svg>